<?xml version="1.0" encoding="UTF-8"?><svg id="a" xmlns="http://www.w3.org/2000/svg" viewBox="0 0 330 330"><path d="m165,0h0c91.13,0,165,73.87,165,165h0c0,91.13-73.87,165-165,165h0C73.87,330,0,256.13,0,165h0C0,73.87,73.87,0,165,0Z"/><g id="b"><g><path d="m77.1,106.24l-4.1-2.3,12.77-22.76,2.73-.77,9.21,5.17.57,2.02,2.02-.57,10.96,6.15-12.77,22.76-2.73.77-4.1-2.3.98-1.75-3.5-1.96-2.73.77-4.06-2.28.98-1.75-3.5-1.96-2.73.77h0Zm12.22-17.68l-6.21,11.06,3.5,1.96,6.21-11.06-3.5-1.96Zm6.61,18.25l6.21-11.06-3.5-1.96-6.21,11.06s3.5,1.96,3.5,1.96Z" style="fill:#fff;"/><path d="m135.15,63.85l2.77.75,4.39,7.48-22.49,13.22-2.75-.71-2.38-4.05,1.73-1.02-7.45-12.67-2.75-.71-2.38-4.05,7.51-4.41,2.75.71,2.38,4.05-1.73,1.02,7.45,12.67,10.94-6.43-2.03-3.46,4.05-2.38h0Z" style="fill:#fff;"/><path d="m149.33,41.98l26.09-.27,2.03,1.99.27,26.09-4.7.05-2.03-1.99-.09-8.71-12.69.13.11,10.72-4.7.05-2.03-1.99-.09-8.71-2.03-1.99-.05-4.66,2.01-.02-.04-4.01-2.03-1.99-.05-4.7h0Zm8.82,10.63l12.69-.13-.04-4.01-12.69.13.04,4.01Z" style="fill:#fff;"/><path d="m223.79,60.86l.73,2.74-4.37,7.53-4.06-2.36-.71-2.78.99-1.7-10.97-6.37-7.38,12.71,10.97,6.37,2.02-3.47,4.06,2.36.71,2.78-4.35,7.5-22.57-13.1-.73-2.74,2.36-4.06,1.74,1.01,7.38-12.71-.73-2.74,2.36-4.06,22.57,13.1h0Z" style="fill:#fff;"/><path d="m255.52,102.1l-.77,2.73-5.15,2.87-3.82-1.09.39.7-.77,2.73-13.43,7.49-2.29-4.1.77-2.73,7.61-4.24-6.18-11.08-3.51,1.96-.77,2.73-4.1,2.29-4.24-7.61.77-2.73,4.1-2.29.98,1.75,3.51-1.96.77-2.73,4.07-2.27.98,1.75,3.51-1.96.77-2.73,4.1-2.29,4.24,7.61-.77,2.73-4.1,2.29-.98-1.75-3.51,1.96,3.46,6.21,7.59,2.16,4.49-2.5,2.29,4.1h0Z" style="fill:#fff;"/></g><g><path d="m145.51,275.01l.55,1.41-1.01,2.29-9.46-4.19-.87,1.96,8.48,3.75.55,1.41-1.01,2.27-9.46-4.19-.87,1.96.55,1.41-1.01,2.29-4.25-1.88-.55-1.41,1.01-2.29.98.43.87-1.96-.55-1.41,1.01-2.27.98.43.87-1.96-.55-1.41,1.01-2.29,12.73,5.64h0Z" style="fill:#fff;"/><path d="m161.94,277.91l.91,1.21-1.98,13.78-13.78-1.98-.91-1.21.36-2.48,1.06.15,1.12-7.76-.91-1.21.36-2.48,4.6.66.91,1.21-.36,2.48-1.06-.15-1.12,7.76,6.7.96,1.63-11.3,2.48.36h0Z" style="fill:#fff;"/><path d="m165.92,280.6l-.33-2.48,13.8-1.83,1.2.92.41,3.12-1.29,1.68.42-.06,1.2.92,1.08,8.13-2.48.33-1.2-.92-.61-4.61-6.71.89.28,2.12,1.2.92.33,2.48-4.61.61-1.2-.92-.33-2.48,1.06-.14-.28-2.12-1.2-.92-.33-2.46,1.06-.14-.28-2.12-1.2-.92h0Zm8.79,2.07l1.84-2.4-5.88.78.28,2.12,3.76-.5h0Z" style="fill:#fff;"/><path d="m195.62,269.94l1.41.55,5.57,12.75-12.75,5.57-1.41-.55-1-2.29,10.07-4.4-2.8-1.11-7.14,3.12-1.41-.55-.99-2.28.98-.43-.86-1.96-1.41-.55-1-2.29,4.26-1.86,1.41.55,1,2.29-.98.43.86,1.96,5.22-2.28,1.41.55-2.72-6.22,2.3-1h0Z" style="fill:#fff;"/></g><path d="m109.96,118.31c8.45-22.05,29.81-37.7,54.83-37.7h0c25.02,0,46.39,15.65,54.83,37.7" style="fill:none; stroke:#fff; stroke-linecap:round; stroke-miterlimit:4.13; stroke-width:12.38px;"/><g><path d="m135.1,130.39l-.56-7.12s-7.26-7.26-6-14.24l-3.14,1.47-2.58,5.79c2.72,7.47,12.29,14.1,12.29,14.1h0Z" style="fill:#fff;"/><path d="m134.2,135.48l-.56-3.28s-11.03-5.93-12.99-13.34l-1.54,1.68-.42,3.14c7.12,8.1,15.5,11.8,15.5,11.8h0Z" style="fill:#fff;"/><path d="m137.13,99.67h-2.51l-2.83,3.98c-2.62,9.01,4.29,17.38,4.29,17.38,0,0-4.29-12.99,1.05-21.36h0Z" style="fill:#fff;"/><path d="m137.13,110.98s3.88-4.4,5.55-4.92c1.68-.52,6.6,7.33,6.6,7.33l1.05-2.41s4.79,7.33,9.63,11.73c0,0-6.81-14.14-7.96-22.31l-1.89,2.93s-3.35-4.4-2.93-9.11c0,0-.94,0-3.67,2.09-6.75,5.19-6.39,14.66-6.39,14.66h0Z" style="fill:#fff;"/><path d="m136.29,139.25s3.7-1.12,5.03-.91c1.33.21,14.66,8.94,16.9,7.33,1.34-.96,2.1-3.8,2.5-5.92,1.12-1.45,1.87-3.01,1.87-3.01,0,0-.15,4.68,2.2,4.71h.02c2.35-.03,2.2-4.71,2.2-4.71,0,0,.75,1.56,1.87,3.01.4,2.12,1.16,4.96,2.5,5.92,2.23,1.61,15.57-7.12,16.9-7.33,1.33-.21,5.03.91,5.03.91l-6.49-5.72s-4.58,3.24-9.22,4.98c3.86-3.71,8.28-8.89,8.28-8.89l3.67,1.78,1.05-11.69s-.21-4.85-3.98-8.2c-9.63,12.67-19.37,16.76-19.37,16.76l.21-1.99-2.63,2.61-2.63-2.61.21,1.99s-9.74-4.08-19.37-16.76c-3.77,3.35-3.98,8.2-3.98,8.2l1.05,11.69,3.67-1.78s4.42,5.18,8.28,8.89c-4.65-1.74-9.22-4.98-9.22-4.98l-6.49,5.72h0Z" style="fill:#fff;"/><path d="m158.79,170.25c1.87,1.68,2.81,4.96,6.01,4.96s4.14-3.28,6.01-4.96c1.87-1.68,5.81-2.09,5.81-2.09,1.05-4.4-2.44-7.19-2.44-7.19l-3.42,4.47.84-6.14-3.49-10.89-3.3-1.12-3.3,1.12-3.49,10.89.84,6.14-3.42-4.47s-3.49,2.79-2.44,7.19c0,0,3.94.42,5.81,2.09h0Z" style="fill:#fff;"/><path d="m123.93,137.72l-5.79,5.87s21.64,6.98,26.6,7.96c4.96.98,9.01-2.37,9.01-2.37l-13.75-6.14-2.86.49-8.17-2.93,3-2.86s-33.93-15.22-34.21-15.01c-.28.21,26.18,15.01,26.18,15.01h0Z" style="fill:#fff;"/><path d="m153.75,158.38l1.19-8.24c-4.68,9.08-14.87,9.77-14.87,9.77,3.98-1.68,7.61-6.14,7.61-6.14,0,0-9.85.35-15.22-3.07-2.93,5.03-3.49,10.82-3.49,10.82,0,0,3.21,5.59,8.17,7.4,4.95,1.82,10.76-1.96,10.76-1.96,0,0-.63-2.16.21-3.98.84-1.82,5.66-4.61,5.66-4.61h0Z" style="fill:#fff;"/><path d="m116.29,199.37l34.56-14.87-1.15,2.62s9.05-3.03,15.1-3.04c6.04,0,15.1,3.04,15.1,3.04l-1.15-2.62,34.56,14.87-5.34-17.28,50.16,16.02-58.96-27.23,1.47,10.47-26.78-8.48.8,4.24-3.25-2.57c-3.28,5.27-6.31,5.16-6.6,5.13h0s0,0-.01,0h-.01c-.3.03-3.32.14-6.6-5.13l-3.25,2.57.8-4.24-26.78,8.48,1.47-10.47-58.96,27.23,50.16-16.02-5.34,17.28h0Z" style="fill:#fff;"/><path d="m94.92,166.48l-6.28-1.57c5.97-2.62,16.4-2.96,16.4-2.96l14.39-10.23-6.76-3.12-11.36,6.57c-16.76,2.72-25.14,10.26-25.14,10.26l8.48,1.89c-3.88,3.77-10.05,6.28-10.05,6.28,11-1.26,20.32-7.12,20.32-7.12h0Z" style="fill:#fff;"/><path d="m120.69,166.27l-1.26-1.78s-.29-3.21,1.07-7.3l-12.06,9.18-15.92,5.13,6.86,1.47c-7.49,7.12-21.31,7.44-21.31,7.44,18.96,4.61,30.16-6.07,30.16-6.07l-3.14-2.41,7.96-.42,7.65-5.24h0Z" style="fill:#fff;"/><path d="m107.91,144.91c-8.48.94-17.59,7.75-17.59,7.75l10.37-1.89,7.23-5.87h0Z" style="fill:#fff;"/><path d="m97.75,203.45l11.21-12.1c-.47,0-14.92,6.13-14.92,6.13,0,0-10.37,8.17-11.62,26.39,0,0,5.55-15.39,15.34-20.42h0Z" style="fill:#fff;"/><path d="m106.76,219.63l4.87-23.09-9.9,15.71s-8.17,2.98-11.41,13.67c-4.01,13.19,6.7,30.63,6.7,30.63,0,0-6.76-23.09,9.74-36.92h0Z" style="fill:#fff;"/><path d="m119.43,237.28s14.56-19.48,21.05-32.67l-5.38,2.09s4.75-10.05,8.73-12.99c-9.14,3.6-17.69,7.83-21.81,9.96-1.65.85-2.87,2.34-3.37,4.12l-3.09,10.85,8.38-3.77s-7.12,10.47-14.98,14.45c0,0-8.27,13.61-4.08,29.32,4.19,15.71,20.87,25.55,20.87,25.55,0,0-18.15-20.74-6.32-46.92h0Z" style="fill:#fff;"/><path d="m154.62,216.23l-5.55,1.47,11-19.06s-4.05.14-7.41.07c-1.34-.03-2.6.62-3.37,1.72-4.52,6.5-12.99,22.51-12.99,22.51h5.13s-7.02,11.83-8.48,18.96c-1.47,7.12,6.91,21.36,6.91,21.36,0,0-.52-12.15.94-19.37s13.82-27.65,13.82-27.65h0Z" style="fill:#fff;"/><path d="m195.04,123.27l-.56,7.12s9.57-6.63,12.29-14.1l-2.58-5.79-3.14-1.47c1.26,6.98-6,14.24-6,14.24h0Z" style="fill:#fff;"/><path d="m195.95,132.2l-.56,3.28s8.38-3.7,15.5-11.8l-.42-3.14-1.54-1.68c-1.96,7.4-12.99,13.34-12.99,13.34h0Z" style="fill:#fff;"/><path d="m193.51,121.03s6.91-8.38,4.29-17.38l-2.83-3.98h-2.51c5.34,8.38,1.05,21.36,1.05,21.36h0Z" style="fill:#fff;"/><path d="m179.26,110.98l1.05,2.41s4.92-7.86,6.6-7.33c1.68.52,5.55,4.92,5.55,4.92,0,0,.36-9.47-6.39-14.66-2.72-2.09-3.67-2.09-3.67-2.09.42,4.71-2.93,9.11-2.93,9.11l-1.89-2.93c-1.15,8.17-7.96,22.31-7.96,22.31,4.85-4.4,9.63-11.73,9.63-11.73h0Z" style="fill:#fff;"/><path d="m164.78,124.73s0,0,.01-.01c0,0,0,0,.01.01v-.03c6.03-6.45,10.75-25.96,8.45-33.07-3.93-1.83-8.21-1.09-8.47-1.05-.25-.05-4.54-.78-8.47,1.05-2.3,7.11,2.42,26.62,8.45,33.07v.03Z" style="fill:#fff;"/><path d="m200.63,140.58l-8.17,2.93-2.86-.49-13.75,6.14s4.05,3.35,9.01,2.37,26.6-7.96,26.6-7.96l-5.79-5.87s26.46-14.8,26.18-15.01c-.28-.21-34.21,15.01-34.21,15.01l3,2.86h0Z" style="fill:#fff;"/><path d="m192.46,168.93c4.95-1.82,8.17-7.4,8.17-7.4,0,0-.56-5.79-3.49-10.82-5.38,3.42-15.22,3.07-15.22,3.07,0,0,3.63,4.47,7.61,6.14,0,0-10.19-.7-14.87-9.77l1.19,8.24s4.82,2.79,5.66,4.61c.84,1.82.21,3.98.21,3.98,0,0,5.8,3.77,10.76,1.96h0Z" style="fill:#fff;"/><path d="m228.28,155.17l-11.36-6.57-6.76,3.12,14.39,10.23s10.43.34,16.4,2.96l-6.28,1.57s9.32,5.87,20.32,7.12c0,0-6.18-2.51-10.05-6.28l8.48-1.89s-8.38-7.54-25.14-10.26h0Z" style="fill:#fff;"/><path d="m251.53,180.41s-13.82-.31-21.31-7.44l6.86-1.47-15.92-5.13-12.06-9.18c1.36,4.08,1.07,7.3,1.07,7.3l-1.26,1.78,7.65,5.24,7.96.42-3.14,2.41s11.21,10.68,30.16,6.07h0Z" style="fill:#fff;"/><path d="m228.9,150.77l10.37,1.89s-9.11-6.81-17.59-7.75l7.23,5.87h0Z" style="fill:#fff;"/><path d="m235.56,197.48s-14.45-6.13-14.92-6.13l11.21,12.1c9.79,5.03,15.34,20.42,15.34,20.42-1.26-18.22-11.62-26.39-11.62-26.39h0Z" style="fill:#fff;"/><path d="m227.86,212.25l-9.9-15.71,4.87,23.09c16.49,13.82,9.74,36.92,9.74,36.92,0,0,10.71-17.45,6.7-30.63-3.25-10.68-11.41-13.67-11.41-13.67h0Z" style="fill:#fff;"/><path d="m205.66,214.87l8.38,3.77-3.09-10.85c-.51-1.78-1.73-3.27-3.37-4.12-4.13-2.12-12.68-6.36-21.81-9.96,3.98,2.93,8.73,12.99,8.73,12.99l-5.38-2.09c6.49,13.2,21.05,32.67,21.05,32.67,11.83,26.18-6.32,46.92-6.32,46.92,0,0,16.69-9.85,20.87-25.55,4.19-15.71-4.08-29.32-4.08-29.32-7.86-3.98-14.98-14.45-14.98-14.45h0Z" style="fill:#fff;"/><path d="m164.79,188.68c-.7,0-1.39-.06-2.02-.15-2.86-.4-5.75.23-8.3,1.9-.03.02-.07.04-.1.06-.95.63-.79,2.42.25,2.75.95.31,2.05.63,3.11.88,2.73.63,7.05,0,7.05,0,0,0,4.32.63,7.05,0,1.06-.24,2.16-.57,3.11-.88,1.04-.34,1.21-2.12.25-2.75-.03-.02-.06-.04-.1-.06-2.55-1.67-5.44-2.3-8.3-1.9-.64.09-1.32.15-2.02.15h0Z" style="fill:#fff;"/><path d="m188.17,222.93h5.13s-8.47-16.01-12.99-22.51c-.76-1.1-2.03-1.74-3.37-1.72-3.36.07-7.41-.07-7.41-.07l11,19.06-5.55-1.47s12.36,20.42,13.82,27.65.94,19.37.94,19.37c0,0,8.38-14.24,6.91-21.36-1.47-7.12-8.48-18.96-8.48-18.96h0Z" style="fill:#fff;"/><path d="m168.04,210.68l2.62,1.05s-3.04-7.54-5.87-13.09c-2.83,5.55-5.87,13.09-5.87,13.09l2.62-1.05-11,27.65,4.92-2.51s-3.14,6.39-3.67,13.4c-.52,7.02,6.7,19.9,6.7,19.9,0,0-1.05-7.54,0-11.52s6.28-14.87,6.28-14.87c0,0,5.24,10.89,6.28,14.87s0,11.52,0,11.52c0,0,7.23-12.88,6.7-19.9-.52-7.02-3.67-13.4-3.67-13.4l4.92,2.51-11-27.65h0Z" style="fill:#fff;"/></g><g><circle cx="80.64" cy="136.76" r="15.32" style="fill:#fff;"/><g><path d="m79.05,128.17l.58.58v1.35h-5.56v1.15h4.98l.58.58v1.33h-5.56v1.15h4.98l.58.58v1.35h-7.48l-.58-.58v-1.35h.58v-1.15l-.58-.58v-1.33h.58v-1.15l-.58-.58v-1.35h7.48Z" style="fill:#333;"/><path d="m89.02,136.23h-7.48l-.58-.58v-1.35h6.13v-1.15h-5.56l-.58-.58v-1.33h.58v-1.15l-.58-.58v-1.35h7.48l.58.58v1.35h-5.56v1.15h4.98l.58.58v4.41h0Z" style="fill:#333;"/><path d="m79.06,137.52l.58.58v1.35h-3.06v6.13h-1.35l-.58-.58v-5.56h-2.5l-.58-.58v-1.35h7.48Z" style="fill:#333;"/><path d="m80.4,137.52h7.48l.58.58v7.48h-7.48l-.58-.58v-1.35h.58v-4.21l-.58-.58v-1.35h0Zm2.5,6.13h3.64v-4.21h-3.64v4.21Z" style="fill:#333;"/></g></g><g><circle cx="248.94" cy="136.76" r="15.32" style="fill:#fff;"/><g><path d="m248.25,133.22h-5.56v1.15h4.98l.58.58v1.35h-7.48l-.58-.58v-1.35h.58v-3.06h5.56v-1.15h-5.56l-.58-.58v-1.35h7.48l.58.58v4.41Z" style="fill:#333;"/><path d="m249.58,129.58v-1.35h7.48l.58.58v6.9l-.58.58h-6.33l-.58-.58v-5.56l-.58-.58h0Zm2.5,4.79h3.64v-4.21h-3.64v4.21Z" style="fill:#333;"/><path d="m248.2,142.57h-5.56v1.15h4.98l.58.58v1.35h-7.48l-.58-.58v-1.35h.58v-3.06h5.56v-1.15h-5.56l-.58-.58v-1.35h7.48l.58.58v4.41Z" style="fill:#333;"/><path d="m257.1,137.58l.58.58v3.03c-.13.13-.43.43-.43.43l.43.43v3.6h-7.48l-.58-.58v-1.35h.58v-1.15h1.92v1.15h3.64v-1.15h-2.46l-.58-.58v-1.33h3.04v-1.15h-5.56l-.58-.58v-1.35h7.48Z" style="fill:#333;"/></g></g></g></svg>