<?xml version="1.0" encoding="utf-8"?>
<!-- Generator: Adobe Illustrator 27.2.0, SVG Export Plug-In . SVG Version: 6.00 Build 0)  -->
<svg version="1.1" id="Layer_1" xmlns="http://www.w3.org/2000/svg" xmlns:xlink="http://www.w3.org/1999/xlink" x="0px" y="0px"
	 viewBox="0 0 31 28" style="enable-background:new 0 0 31 28;" xml:space="preserve">
<style type="text/css">
	.st0{fill-rule:evenodd;clip-rule:evenodd;fill:#E0E0E0;}
	.st1{clip-path:url(#SVGID_00000108290959150253417290000002910296474730634371_);}
	.st2{fill:#627EEA;}
	.st3{fill:#C0CCF7;}
	.st4{fill:#FFFFFF;}
	.st5{fill:#8198EE;}
	.st6{fill:#EAF143;}
</style>
<path class="st0" d="M14,0c7.7,0,14,6.3,14,14c0,7.7-6.3,14-14,14c-7.7,0-14-6.3-14-14C0,6.3,6.3,0,14,0z"/>
<path d="M14.2,19.8c-4.5,0-8.1-1.3-8.1-3c0-0.9,1-1.7,2.6-2.3c1.2,0.8,3.3,1.2,5.6,1.2c2.3,0,4.3-0.5,5.6-1.3
	c1.5,0.6,2.4,1.4,2.4,2.2C22.3,18.4,18.6,19.8,14.2,19.8z"/>
<path d="M14.2,15.3c-3.4,0-6.1-1.1-6.1-2.4c0-0.7,0.8-1.4,2.2-1.8c0.9,0.5,2.4,0.8,4,0.8s3-0.3,4-0.8c1.3,0.4,2.2,1.1,2.2,1.8
	C20.4,14.2,17.6,15.3,14.2,15.3z"/>
<path d="M14.2,11.5c-2.6,0-4.7-0.9-4.7-2c0-1.1,2.1-2,4.7-2s4.7,0.9,4.7,2C18.9,10.7,16.8,11.5,14.2,11.5z"/>
<g>
	<defs>
		<rect id="SVGID_1_" x="20.3" y="15.2" width="10.7" height="10.7"/>
	</defs>
	<clipPath id="SVGID_00000056393568584662066900000015382987459315933072_">
		<use xlink:href="#SVGID_1_"  style="overflow:visible;"/>
	</clipPath>
	<g style="clip-path:url(#SVGID_00000056393568584662066900000015382987459315933072_);">
		<path class="st2" d="M25.6,25.9c3,0,5.4-2.4,5.4-5.4c0-3-2.4-5.4-5.4-5.4c-3,0-5.4,2.4-5.4,5.4C20.3,23.5,22.7,25.9,25.6,25.9z"/>
		<path class="st3" d="M25.7,16.7l-0.1,0.2v5.2l0.1,0.1l2.4-1.4L25.7,16.7z"/>
		<path class="st4" d="M25.7,16.7l-2.4,4l2.4,1.4V16.7z"/>
		<path class="st3" d="M25.7,22.6L25.7,22.6l0,1.9l0,0.1l2.4-3.4L25.7,22.6z"/>
		<path class="st4" d="M25.7,24.6v-2l-2.4-1.4L25.7,24.6z"/>
		<path class="st5" d="M25.7,22.1l2.4-1.4l-2.4-1.1L25.7,22.1L25.7,22.1z"/>
		<path class="st3" d="M23.2,20.7l2.4,1.4v-2.5L23.2,20.7z"/>
	</g>
</g>
<g>
	<path d="M25.5,2.7L25.5,2.7c3,0,5.4,2.4,5.4,5.4l0,0c0,3-2.4,5.4-5.4,5.4l0,0c-3,0-5.4-2.4-5.4-5.4l0,0C20.1,5.1,22.5,2.7,25.5,2.7
		z"/>
	<path class="st6" d="M27.9,10.4c0.4-0.3,0.6-0.7,0.6-1.1c0,0.3-0.4,0.4-0.5,0.2l0,0c-0.1-0.1-0.1-0.3,0-0.4c0-0.3,0.1-0.5,0.2-0.7
		c0.1-0.4,0.1-1-0.2-1.3c0.1,0.4-0.3,0.8-0.7,0.8c-0.7-0.1-1.1-0.8-0.8-1.4l0,0c0-0.1,0.1-0.1,0.1-0.2c0.3-0.4,0.3-1,0.1-1.5
		c-0.1-0.2-0.2-0.3-0.3-0.4c-0.2-0.3-0.4-0.6-0.3-1c-0.2,0.4-0.3,0.9-0.1,1.3c0,0.1,0.1,0.2,0.1,0.3c0.1,0.3,0,0.6-0.2,0.8
		c-0.4,0.6-1.3,0.2-1.1-0.5c-0.2,0.3-0.3,0.7-0.1,1c0,0.1,0.1,0.1,0.1,0.2c0.1,0.2,0.1,0.4,0.1,0.7c0,0.1,0,0.1,0,0.2c0,0,0,0,0,0
		c0,0,0,0,0,0c-0.2,0.5-1,0.4-1.1-0.1c-0.1-0.4-0.4-0.7-0.8-0.8c0.3,0.2,0.4,0.5,0.3,0.9C23.1,7.6,23,7.8,23,8.1c0,0.1,0,0.2,0,0.3
		c0,0.3,0.1,0.5,0.2,0.8c0.1,0.1,0.1,0.3,0,0.4l0,0c-0.1,0.1-0.3,0.1-0.4,0l0,0c0,0-0.1-0.1-0.1-0.1c0,0,0,0,0,0c0,0,0-0.1,0-0.1
		c0,0.4,0.2,0.9,0.6,1.1c0.1,0,0.1,0.1,0,0.2c-0.1,0.3,0,0.6,0.3,0.7c0.3-0.4,0.9-0.2,1,0.2v0c0,0.1,0.1,0.2,0.2,0.3l0,0
		c0.1-0.2,0.4-0.1,0.4,0.1c0,0,0.1,0,0.1,0c0-0.3,0.4-0.3,0.4,0c0,0,0.1,0,0.1,0c0-0.2,0.3-0.3,0.4-0.1l0,0c0.1,0,0.2-0.1,0.2-0.2
		c0-0.1,0-0.2,0.1-0.2c0.2-0.4,0.7-0.4,1-0.1c0.3-0.1,0.4-0.4,0.3-0.6c0,0,0,0,0-0.1C27.8,10.6,27.8,10.5,27.9,10.4z M23.4,10.5
		C23.4,10.5,23.4,10.5,23.4,10.5C23.4,10.5,23.4,10.5,23.4,10.5C23.4,10.5,23.4,10.5,23.4,10.5z M24.5,10.4c-1,0-0.5-1.1-1.1-1.1
		c0.1-0.1,0.5-0.1,0.7,0.2c0.2,0.3,1.2,0.9,1.2,0.4C25.4,9.8,25.5,10.4,24.5,10.4z M25.7,11.1c0,0,0-0.2-0.1-0.2
		c-0.1,0-0.1,0.2-0.1,0.2s-0.2,0-0.2-0.2c0-0.2,0.2-0.6,0.2-0.6c0,0.1,0,0.1,0.1,0.1s0.1,0,0.1-0.1c0,0,0.2,0.3,0.2,0.6
		S25.7,11.1,25.7,11.1z M26.6,10.4c-1,0-0.9-0.6-0.9-0.6c0,0.5,1-0.1,1.2-0.4c0.2-0.3,0.6-0.3,0.7-0.2C27.1,9.3,27.5,10.4,26.6,10.4
		z"/>
</g>
</svg>
