<?xml version="1.0" encoding="utf-8"?>
<!-- Generator: Adobe Illustrator 27.2.0, SVG Export Plug-In . SVG Version: 6.00 Build 0)  -->
<svg version="1.1" id="Layer_1" xmlns="http://www.w3.org/2000/svg" xmlns:xlink="http://www.w3.org/1999/xlink" x="0px" y="0px"
	 viewBox="0 0 497 499" style="enable-background:new 0 0 497 499;" xml:space="preserve">
<style type="text/css">
	.st0{clip-path:url(#SVGID_00000116225935353725527670000017452286800696959874_);}
	.st1{fill:#FFFFFF;}
	.st2{fill:#020202;}
	.st3{fill:#EAF143;}
</style>
<g>
	<defs>
		<rect id="SVGID_1_" width="497" height="499"/>
	</defs>
	<clipPath id="SVGID_00000131334913072650643150000004804863693011116953_">
		<use xlink:href="#SVGID_1_"  style="overflow:visible;"/>
	</clipPath>
	<g style="clip-path:url(#SVGID_00000131334913072650643150000004804863693011116953_);">
		<path d="M496,333c0-91.1-73.9-165-165-165s-165,73.9-165,165s73.9,165,165,165S496,424.1,496,333z"/>
		<path class="st1" d="M166,308c79.5,0,144-64.5,144-144S245.5,20,166,20S22,84.5,22,164S86.5,308,166,308z"/>
		<path class="st2" d="M165,330c32.6,0,64.5-9.7,91.7-27.8c27.1-18.1,48.3-43.9,60.8-74c12.5-30.2,15.8-63.3,9.4-95.3
			c-6.4-32-22.1-61.4-45.2-84.5c-23.1-23.1-52.5-38.8-84.5-45.2s-65.2-3.1-95.3,9.4C71.7,25,45.9,46.2,27.8,73.3
			C9.7,100.5,0,132.4,0,165c0,43.8,17.4,85.7,48.3,116.7C79.3,312.6,121.2,330,165,330L165,330z M165,302.7
			c-27.2,0-53.9-8.1-76.5-23.2c-22.6-15.1-40.3-36.6-50.7-61.8c-10.4-25.2-13.2-52.9-7.8-79.6c5.3-26.7,18.4-51.3,37.7-70.5
			c25.9-25.5,60.8-39.7,97.2-39.6c36.3,0.1,71.2,14.6,96.9,40.3c25.7,25.7,40.2,60.5,40.3,96.9c0.1,36.3-14.1,71.3-39.6,97.2
			c-12.8,12.8-27.9,23-44.7,29.9C201,299.2,183.1,302.8,165,302.7L165,302.7z M165,46.4c-23.5,0-46.4,7-65.9,20
			c-19.5,13-34.7,31.6-43.7,53.2c-9,21.7-11.3,45.5-6.8,68.5c4.6,23,15.9,44.1,32.5,60.7s37.7,27.9,60.7,32.5
			c23,4.6,46.9,2.2,68.5-6.8s40.2-24.2,53.2-43.7c13-19.5,20-42.4,20-65.9c0-31.5-12.5-61.6-34.8-83.8
			C226.6,58.9,196.5,46.4,165,46.4L165,46.4z M101.3,204.2h127.5v19.5H101.3V204.2z M151.1,194.8v-11.2h-10v-78.7h10V94.3h7.5v10.7
			h9.3V94.3h7.5V105c4.6,0.2,10.5,0.9,14.9,3.7c8.4,5.4,9.1,14.6,9.1,17.3c0,5.1-1.7,9.3-4.8,12.2c-1.7,1.8-3.8,3.2-6,4.3
			c10.1,3.2,13.9,11.6,13.9,18.9c0,4-1.1,7.9-3.2,11.2c-2.1,3.4-5.1,6.1-8.7,7.8c-3.4,1.8-8.5,2.8-15.3,3.1v11.3h-7.5v-11.2h-9.3
			v11.2H151.1z M159,119v17.1h10.3c6.1,0,12-0.7,12-8.7c0-7.8-5.6-8.4-12.3-8.4H159z M159,150.2v18.9h10c9,0,14.9-0.6,14.9-9.1
			c0-9.1-7.2-9.8-16.5-9.8H159z"/>
		<path class="st3" d="M407.4,412c11.1-7.7,17.8-20.4,17.7-33.9c0,8.9-11.5,12.6-16.7,5.5l0,0c-2.7-3.5-1.7-8.3-1.4-12.4
			c0.7-8,3-15.2,5.9-22.4c4.3-13.5,1.7-29.4-6.7-40.7c3.4,13.2-8.4,25.7-21.7,23.8c-20.1-1.7-32.7-23.4-24.7-41.7l0,0
			c0.7-1.7,1.6-3.4,2.7-4.9c8.5-13.2,9.8-31.9,3.1-46.3c-2.2-5-5.2-9.6-8.9-13.6c-7.1-7.9-11-19.4-9.7-30.6
			c-7.1,11.5-7.8,27.7-1.7,39.8c1.5,2.7,2.6,5.7,3.3,8.8c1.9,8.5-0.3,18.1-5.3,24.9c-12.1,17.5-39.3,6.3-35.4-14.8
			c-6.2,8.4-7.7,21-3.4,30.8c0.8,2,2.1,3.8,3,5.9c2.9,6.5,4.1,13.6,3.4,20.6c-0.2,2.3-0.6,4.5-1.2,6.7c0,0.2-0.1,0.4-0.2,0.6
			c-0.1,0-0.1,0-0.2,0.1c-7.2,15-29.5,12.3-32.8-4.2c-2.4-12.7-12.4-22.7-25.2-25.1c8.5,5.2,13.2,16.5,10.5,26.5
			c-2,8.1-3.1,16.4-3.1,24.8c0,3,0.1,5.9,0.4,8.8c0.7,8.1,2.4,16.2,5,23.9c1.7,3.7,1.9,8.4-1.1,11.4l0,0c-3.1,3.5-9,4-12.6,0.9l0,0
			c-0.9-0.8-1.6-1.7-2.2-2.7c-0.2-0.4-0.4-0.8-0.6-1.2c-0.4-1-0.6-2.1-0.6-3.1c0,13.6,6.6,26.3,17.8,34c1.9,1.5,2.5,4.1,1.4,6.2
			c-4.2,7.8,0,18.3,8.1,21.1c9.3-12,28.8-7.4,31.9,7.4v0.1c0.6,3.9,3.4,7,7.1,8.2l0,0c2.8-6.7,12.9-4.5,12.5,2.8
			c1.1,0.1,2.2,0.3,3.3,0.3c-0.6-9.6,13.5-9.6,12.9,0c1.5-0.1,3-0.3,4.4-0.5c-0.2-7,9.4-9.3,12.4-3l0,0c3-1,5.3-3.4,6.2-6.4
			c0.8-2.4,1.2-5,2.6-7.1c6.2-10.8,22.2-11.8,29.7-1.9c7.9-2.8,11.9-11.5,9.1-19.3c-0.3-0.7-0.6-1.4-0.9-2.1
			C404.8,415.8,405.5,413.3,407.4,412z M269,414.6c0,0,0-0.1-0.1-0.1C269,414.5,269,414.5,269,414.6C269,414.5,269,414.6,269,414.6z
			 M304.5,409.8c-29.9,0-15.2-33.1-33.1-33.1c4.2-3,16.1-2.7,22.8,5.2c6.7,7.9,37.2,27.5,37.2,10.8
			C331.4,392.7,334.4,409.8,304.5,409.8z M339.9,433.7c0,0-1.2-6.6-4.1-6.6s-4.1,6.6-4.1,6.6s-6-0.3-6-7.6s6.9-17.3,6.9-17.3
			c0.3,1.9,1.5,2.9,3.2,2.9c1.7,0,2.9-1,3.2-2.9c0,0,6.9,10.1,6.9,17.3C345.9,433.3,339.9,433.7,339.9,433.7z M367.8,409.8
			c-29.9,0-26.9-17.1-26.9-17.1c0,16.7,30.6-3,37.3-10.9c6.7-7.9,18.6-8.2,22.8-5.2C383,376.6,397.7,409.8,367.8,409.8z"/>
	</g>
</g>
</svg>
