<?xml version="1.0" encoding="utf-8"?>
<!-- Generator: Adobe Illustrator 27.2.0, SVG Export Plug-In . SVG Version: 6.00 Build 0)  -->
<svg version="1.1" id="Layer_1" xmlns="http://www.w3.org/2000/svg" xmlns:xlink="http://www.w3.org/1999/xlink" x="0px" y="0px"
	 viewBox="0 0 497 499" style="enable-background:new 0 0 497 499;" xml:space="preserve">
<style type="text/css">
	.st0{clip-path:url(#SVGID_00000155109083011538797300000000346791221700407949_);}
	.st1{fill:#FFFFFF;}
	.st2{fill:#020202;}
	.st3{fill:#EAF143;}
</style>
<g>
	<defs>
		<rect id="SVGID_1_" width="497" height="499"/>
	</defs>
	<clipPath id="SVGID_00000096764310849648754670000006360486373365000580_">
		<use xlink:href="#SVGID_1_"  style="overflow:visible;"/>
	</clipPath>
	<g style="clip-path:url(#SVGID_00000096764310849648754670000006360486373365000580_);">
		<path d="M496,333c0-91.1-73.9-165-165-165s-165,73.9-165,165s73.9,165,165,165S496,424.1,496,333z"/>
		<path class="st1" d="M166,308c79.5,0,144-64.5,144-144S245.5,20,166,20S22,84.5,22,164S86.5,308,166,308z"/>
		<path class="st2" d="M165,330c32.6,0,64.5-9.7,91.7-27.8c27.1-18.1,48.3-43.9,60.8-74c9.3-22.5,13.6-46.9,12.4-71.2
			c-1.2-24.4-7.8-48.2-19.3-69.7C299,65.7,282.9,47,263.3,32.5c-19.6-14.5-42.2-24.5-66.1-29.3c-34.7-6.9-70.7-2.5-102.7,12.7
			C62.5,31,36.2,56,19.5,87.2c-16.7,31.2-22.9,67-17.7,102c5.2,35,21.5,67.4,46.5,92.5C79.3,312.6,121.2,330,165,330z M165,302.7
			c-20.4,0-40.5-4.5-58.9-13.2s-34.7-21.4-47.6-37.1s-22.2-34.1-27.1-53.9c-4.9-19.8-5.5-40.4-1.5-60.3
			c5.3-26.7,18.4-51.3,37.7-70.5c25.9-25.5,60.8-39.7,97.1-39.5c36.3,0.2,71.1,14.7,96.8,40.3c25.7,25.7,40.2,60.5,40.3,96.8
			c0.2,36.3-14.1,71.2-39.5,97.1c-12.8,12.8-27.9,23-44.7,29.9C201,299.2,183.1,302.8,165,302.7L165,302.7z M165,46.4
			c-23.5,0-46.4,7-65.9,20c-19.5,13-34.7,31.6-43.7,53.2c-9,21.7-11.3,45.5-6.8,68.5c4.6,23,15.9,44.1,32.5,60.7
			s37.7,27.9,60.7,32.5c23,4.6,46.9,2.2,68.5-6.8s40.2-24.2,53.2-43.7c13-19.5,20-42.4,20-65.9c0-31.5-12.5-61.6-34.8-83.8
			C226.6,58.9,196.5,46.4,165,46.4L165,46.4z M100.4,204h127.5v19.5H100.4V204z M153.2,154.7c0.1,3.3,0.6,9.1,8.3,11.1v-17.5
			l-7.2-1.9c-7.8-2.1-20.4-5.5-20.4-21c0-10.7,7.5-22.4,27.6-23V92.1h6.7v10.3c22.7,1,26.9,11.2,27.1,23.4h-20.8
			c0.1-8-4.6-9.5-6.3-9.7v16.3c11.9,2.6,17.8,4,23.2,8.4c2.1,1.9,3.8,4.2,5,6.8c1.1,2.6,1.7,5.4,1.6,8.3c0,4.8-1.6,14.6-13.2,20.3
			c-4.2,2-9.5,3.1-16.6,3.5V190h-6.7v-10.2c-11.5-0.5-28.8-4.2-28.9-25.1L153.2,154.7L153.2,154.7z M161.6,116
			c-6.1,1.6-6.5,5.6-6.5,7.3c0,3.4,2.6,6.4,6.5,7.3V116L161.6,116z M168.3,166c5.8-0.9,8.4-4.4,8.4-8.3c0-5.6-5.1-7-6.6-7.3
			l-1.8-0.6V166L168.3,166z"/>
		<path class="st3" d="M405.3,414.2c11.1-7.7,17.8-20.4,17.7-33.9c0,8.9-11.5,12.6-16.7,5.5l0,0c-2.7-3.5-1.7-8.3-1.4-12.4
			c0.7-8,3-15.2,5.9-22.4c4.3-13.5,1.7-29.4-6.7-40.7c3.4,13.2-8.4,25.7-21.7,23.8c-20.1-1.7-32.7-23.4-24.7-41.7l0,0
			c0.7-1.7,1.6-3.4,2.7-4.9c8.5-13.2,9.8-31.9,3.1-46.3c-2.2-5-5.2-9.6-8.9-13.6c-7.1-7.9-11-19.4-9.7-30.6
			c-7.1,11.5-7.8,27.7-1.7,39.8c1.5,2.7,2.6,5.7,3.3,8.8c1.9,8.5-0.3,18.1-5.3,24.9c-12.1,17.5-39.3,6.3-35.4-14.8
			c-6.2,8.4-7.7,21-3.4,30.8c0.8,2,2.1,3.8,3,5.9c2.9,6.5,4.1,13.6,3.4,20.6c-0.2,2.3-0.6,4.5-1.2,6.7c0,0.2-0.1,0.4-0.2,0.6
			c-0.1,0-0.1,0-0.2,0.1c-7.2,15-29.5,12.3-32.8-4.2c-2.4-12.7-12.4-22.7-25.2-25.1c8.5,5.2,13.2,16.5,10.5,26.5
			c-2,8.1-3.1,16.4-3.1,24.8c0,3,0.1,5.9,0.4,8.8c0.7,8.1,2.4,16.2,5,23.9c1.7,3.7,1.9,8.4-1.1,11.4l0,0c-3.1,3.5-9,4-12.6,0.9l0,0
			c-0.9-0.8-1.6-1.7-2.2-2.7c-0.2-0.4-0.4-0.8-0.6-1.2c-0.4-1-0.6-2.1-0.6-3.1c0,13.6,6.6,26.3,17.8,34c1.9,1.5,2.5,4.1,1.4,6.2
			c-4.2,7.8,0,18.3,8.1,21.1c9.3-12,28.8-7.4,31.9,7.4v0.1c0.6,3.9,3.4,7,7.1,8.2l0,0c2.8-6.7,12.9-4.5,12.5,2.8
			c1.1,0.1,2.2,0.3,3.3,0.3c-0.6-9.6,13.5-9.6,12.9,0c1.5-0.1,3-0.3,4.4-0.5c-0.2-7,9.4-9.3,12.4-3l0,0c3-1,5.3-3.4,6.2-6.4
			c0.8-2.4,1.2-5,2.6-7.1c6.2-10.8,22.2-11.8,29.7-1.9c7.9-2.8,11.9-11.5,9.1-19.3c-0.3-0.7-0.6-1.4-0.9-2.1
			C402.7,418,403.4,415.5,405.3,414.2z M266.9,416.8c0,0,0-0.1-0.1-0.1C266.9,416.7,266.9,416.7,266.9,416.8
			C266.9,416.7,266.9,416.8,266.9,416.8z M302.4,412c-29.9,0-15.2-33.1-33.1-33.1c4.2-3,16.1-2.7,22.8,5.2
			c6.7,7.9,37.2,27.5,37.2,10.8C329.3,394.9,332.3,412,302.4,412z M337.8,435.9c0,0-1.2-6.6-4.1-6.6c-2.9,0-4.1,6.6-4.1,6.6
			s-6-0.3-6-7.6s6.9-17.3,6.9-17.3c0.3,1.9,1.5,2.9,3.2,2.9c1.7,0,2.9-1,3.2-2.9c0,0,6.9,10.1,6.9,17.3
			C343.8,435.5,337.8,435.9,337.8,435.9z M365.7,412c-29.9,0-26.9-17.1-26.9-17.1c0,16.7,30.6-3,37.3-10.9
			c6.7-7.9,18.6-8.2,22.8-5.2C380.9,378.8,395.6,412,365.7,412z"/>
	</g>
</g>
</svg>
