<?xml version="1.0" encoding="utf-8"?>
<!-- Generator: Adobe Illustrator 27.2.0, SVG Export Plug-In . SVG Version: 6.00 Build 0)  -->
<svg version="1.1" id="Layer_1" xmlns="http://www.w3.org/2000/svg" xmlns:xlink="http://www.w3.org/1999/xlink" x="0px" y="0px"
	 viewBox="0 0 332 332" style="enable-background:new 0 0 332 332;" xml:space="preserve">
<style type="text/css">
	.st0{fill:#EAF143;}
</style>
<g>
	<path d="M166,1L166,1c91.1,0,165,73.9,165,165l0,0c0,91.1-73.9,165-165,165l0,0C74.9,331,1,257.1,1,166l0,0C1,74.9,74.9,1,166,1z"
		/>
</g>
<path class="st0" d="M237.3,251.9c11.1-7.7,17.8-20.4,17.7-33.9c0,8.9-11.5,12.6-16.7,5.5l0,0c-2.7-3.5-1.7-8.3-1.4-12.4
	c0.7-8,3-15.2,5.9-22.4c4.3-13.5,1.7-29.4-6.7-40.7c3.4,13.2-8.4,25.7-21.7,23.8c-20.1-1.7-32.7-23.4-24.7-41.7l0,0
	c0.7-1.7,1.6-3.4,2.7-4.9c8.5-13.2,9.8-31.9,3.1-46.3c-2.2-5-5.2-9.6-8.9-13.6c-7.1-7.9-11-19.4-9.7-30.6
	c-7.1,11.5-7.8,27.7-1.7,39.8c1.5,2.7,2.6,5.7,3.3,8.8c1.9,8.5-0.3,18.1-5.3,24.9c-12.1,17.5-39.3,6.3-35.4-14.8
	c-6.2,8.4-7.7,21-3.4,30.8c0.8,2,2.1,3.8,3,5.9c2.9,6.5,4.1,13.6,3.4,20.6c-0.2,2.3-0.6,4.5-1.2,6.7c0,0.2-0.1,0.4-0.2,0.6
	c-0.1,0-0.1,0-0.2,0.1c-7.2,15-29.5,12.3-32.8-4.2c-2.4-12.7-12.4-22.7-25.2-25.1c8.5,5.2,13.2,16.5,10.5,26.5
	c-2,8.1-3.1,16.4-3.1,24.8c0,3,0.1,5.9,0.4,8.8c0.7,8.1,2.4,16.2,5,23.9c1.7,3.7,1.9,8.4-1.1,11.4l0,0c-3.1,3.5-9,4-12.6,0.9l0,0
	c-0.9-0.8-1.6-1.7-2.2-2.7c-0.2-0.4-0.4-0.8-0.6-1.2c-0.4-1-0.6-2.1-0.6-3.1c0,13.6,6.6,26.3,17.8,34c1.9,1.5,2.5,4.1,1.4,6.2
	c-4.2,7.8,0,18.3,8.1,21.1c9.3-12,28.8-7.4,31.9,7.4v0.1c0.6,3.9,3.4,7,7.1,8.2l0,0c2.8-6.7,12.9-4.5,12.5,2.8
	c1.1,0.1,2.2,0.3,3.3,0.3c-0.6-9.6,13.5-9.6,12.9,0c1.5-0.1,3-0.3,4.4-0.5c-0.2-7,9.4-9.3,12.4-3l0,0c3-1,5.3-3.4,6.2-6.4
	c0.8-2.4,1.2-5,2.6-7.1c6.2-10.8,22.2-11.8,29.7-1.9c7.9-2.8,11.9-11.5,9.1-19.3c-0.3-0.7-0.6-1.4-0.9-2.1
	C234.7,255.8,235.4,253.2,237.3,251.9z M98.9,254.5c0,0,0-0.1-0.1-0.1C98.9,254.4,98.9,254.4,98.9,254.5
	C98.9,254.4,98.9,254.5,98.9,254.5z M134.4,249.8c-29.9,0-15.2-33.1-33.1-33.1c4.2-3,16.1-2.7,22.8,5.2c6.7,7.9,37.2,27.5,37.2,10.8
	C161.3,232.6,164.3,249.8,134.4,249.8z M169.8,273.6c0,0-1.2-6.6-4.1-6.6s-4.1,6.6-4.1,6.6s-6-0.3-6-7.6s6.9-17.3,6.9-17.3
	c0.3,1.9,1.5,2.9,3.2,2.9c1.7,0,2.9-1,3.2-2.9c0,0,6.9,10.1,6.9,17.3C175.8,273.2,169.8,273.6,169.8,273.6z M197.7,249.8
	c-29.9,0-26.9-17.1-26.9-17.1c0,16.7,30.6-3,37.3-10.9c6.7-7.9,18.6-8.2,22.8-5.2C212.9,216.5,227.6,249.8,197.7,249.8z"/>
</svg>
