<?xml version="1.0" encoding="utf-8"?>
<!-- Generator: Adobe Illustrator 27.2.0, SVG Export Plug-In . SVG Version: 6.00 Build 0)  -->
<svg version="1.1" id="Layer_1" xmlns="http://www.w3.org/2000/svg" xmlns:xlink="http://www.w3.org/1999/xlink" x="0px" y="0px"
	 viewBox="0 0 330 330" style="enable-background:new 0 0 330 330;" xml:space="preserve">
<style type="text/css">
	.st0{fill:#FFFFFF;}
</style>
<g>
	<path d="M165,0.5L165,0.5c91.1,0,165,73.9,165,165l0,0c0,91.1-73.9,165-165,165l0,0c-91.1,0-165-73.9-165-165l0,0
		C0,74.4,73.9,0.5,165,0.5z"/>
</g>
<g>
	<path class="st0" d="M65,164.9l-17.5,45.2c-0.2,0.5-1,0.5-1.3,0l-21.1-54.8c-0.2-0.4,0.1-0.8,0.6-0.8h9.5c0.4,0,0.6,0.1,0.7,0.4
		l10.9,30.5l7.4-20.5H65z"/>
	<path class="st0" d="M114.8,163.9v12.7c0,0.4-0.5,0.9-1.1,0.9H82.3v32.9h-0.1h-9.9h-4.2c-0.6,0-1.1-0.5-1.1-0.9v-78.2
		c0-0.4,0.5-0.9,1.1-0.9H105v14.5H82.3V163h31.4C114.3,163,114.8,163.4,114.8,163.9z"/>
	<path class="st0" d="M177.2,131.3v52.4c0,16.9-13,26.7-30,26.7c-16.5,0-30-10.2-30-26.7v-38.8h15.1v38.7
		c0.9,7.9,7.5,12.1,14.9,12.1c7.5,0,14.9-3.9,14.9-12v-52.4c0-0.4,0.4-0.9,1.1-0.9h13C176.7,130.4,177.2,130.9,177.2,131.3z"/>
	<path class="st0" d="M233.9,210.4h-14.3c-0.3,0-0.9-0.3-1-0.6L204,178.1h-8.6v31.4c0,0.4-0.5,0.9-1.1,0.9h-13.1c-0.5,0-1-0.5-1-0.9
		v-46.1h15.2h11.7c3.3,0,11.8-0.4,11.8-9.2c0-8.8-9.4-9.3-11.8-9.3h-11.7h-15.2v-13.6c0-0.4,0.5-0.9,1-0.9h25.9
		c4.5,0,27,0.2,27,23.8c0,12.2-6.7,18.6-14.7,21.5c5,11.3,10.4,22.3,15.4,33.4C235.1,209.8,234.7,210.4,233.9,210.4z"/>
	<path class="st0" d="M301.7,145.7l-19.3,27.1v36.7c0,0.4-0.5,0.9-1.1,0.9h-13.1c-0.7,0-1.1-0.5-1.1-0.9v-36.7
		c-9.6-13.7-19.5-27.3-29.2-40.9c-0.5-0.7-0.1-1.5,1-1.5h15.8c0.3,0,0.8,0.1,1,0.3l19,26.7l8.4-11.7H301.7z"/>
</g>
</svg>
