<?xml version="1.0" encoding="utf-8"?>
<!-- Generator: Adobe Illustrator 27.2.0, SVG Export Plug-In . SVG Version: 6.00 Build 0)  -->
<svg version="1.1" id="Layer_1" xmlns="http://www.w3.org/2000/svg" xmlns:xlink="http://www.w3.org/1999/xlink" x="0px" y="0px"
	 viewBox="0 0 1108 192" style="enable-background:new 0 0 1108 192;" xml:space="preserve">
<style type="text/css">
	.st0{fill:#FFF952;}
	.st1{fill:#FFFFFF;}
</style>
<g>
	<g transform="translate(245.649453, 455.36304)">
		<g>
			<path class="st0" d="M244.2-376.1h-71.5v-41.2h51.7v-33h-84c-1.4,0-2.5,1.1-2.5,2v178.1c0,0.9,1.1,2,2.5,2h32.3v-74.9h71.5
				c1.4,0,2.5-1.1,2.5-2v-28.9C246.7-375.2,245.5-376.1,244.2-376.1z"/>
		</g>
	</g>
</g>
<g>
	<g transform="translate(337.186001, 455.36304)">
		<g>
			<path class="st0" d="M294.9-450.4h-29.6c-1.6,0-2.5,1.1-2.5,2V-329c0,18.4-16.9,27.3-33.9,27.3c-16.8,0-31.9-9.6-33.9-27.6v-88.1
				h-34.4v88.3c0,37.6,30.7,60.8,68.3,60.8c38.7,0,68.3-22.3,68.3-60.8v-119.3C297.2-449.2,296.1-450.4,294.9-450.4z"/>
		</g>
	</g>
</g>
<g>
	<g transform="translate(452.062544, 455.36304)">
		<g>
			<path class="st0" d="M313.5-271.2c-11.4-25.3-23.7-50.3-35.1-76.1c18.2-6.6,33.5-21.2,33.5-49c0-53.7-51.2-54.2-61.5-54.2h-59
				c-1.1,0-2.3,1.1-2.3,2v31h61.3c5.5,0,26.9,1.1,26.9,21.2c0,20-19.4,21-26.9,21h-61.3v105c0,0.9,1.1,2,2.3,2h29.8
				c1.4,0,2.5-1.1,2.5-2v-71.5h19.6l33.2,72.2c0.2,0.7,1.6,1.4,2.3,1.4h32.6C313.3-268.2,314.2-269.6,313.5-271.2z"/>
		</g>
	</g>
</g>
<g>
	<g transform="translate(556.910195, 455.36304)">
		<g>
			<path class="st0" d="M318.6-415.5l-19.1,26.6l-43.3-60.8c-0.5-0.5-1.6-0.7-2.3-0.7h-36c-2.5,0-3.4,1.8-2.3,3.4
				c22.1,31,44.6,61.9,66.5,93.1v83.6c0,0.9,0.9,2,2.5,2h29.8c1.4,0,2.5-1.1,2.5-2v-83.6l44-61.7H318.6z"/>
		</g>
	</g>
</g>
<g>
	<g transform="translate(79.313531, 456.371013)">
		<g>
			<path class="st1" d="M247.8-373.9c-20.2,0-29.4,12.5-33.5,31.1h-6c-3.1-18.1-11.3-31.1-30.8-31.1c-20.2,0-29.6,12.5-33.7,31.1
				h-8.2l6.2-18.5v-10.5h-32.9v103.9h32.9v-36.4c0-25.1,4.1-40.7,22-40.7c12.1,0,15.4,5.6,15.4,25.3v51.8H212v-36.4
				c0-25.1,4.1-40.7,22-40.7c12.1,0,15.4,5.6,15.4,25.3v51.8h32.9V-322C282.4-350,274.3-373.9,247.8-373.9z"/>
		</g>
	</g>
</g>
</svg>
