<?xml version="1.0" encoding="utf-8"?>
<!-- Generator: Adobe Illustrator 27.2.0, SVG Export Plug-In . SVG Version: 6.00 Build 0)  -->
<svg version="1.1" id="Layer_1" xmlns="http://www.w3.org/2000/svg" xmlns:xlink="http://www.w3.org/1999/xlink" x="0px" y="0px"
	 viewBox="0 0 700 700" style="enable-background:new 0 0 700 700;" xml:space="preserve">
<style type="text/css">
	.st0{fill:#FFF952;}
	.st1{fill:#FFFFFF;}
</style>
<g>
	<g transform="translate(245.649453, 455.36304)">
		<g>
			<path class="st0" d="M46.7-107.2h-65.3v-37.6h47.2v-30.1h-76.7c-1.2,0-2.3,1-2.3,1.9v162.5c0,0.8,1,1.9,2.3,1.9h29.5V-77h65.3
				c1.2,0,2.3-1,2.3-1.9v-26.4C49-106.3,47.9-107.2,46.7-107.2z"/>
		</g>
	</g>
</g>
<g>
	<g transform="translate(337.186001, 455.36304)">
		<g>
			<path class="st0" d="M85-174.9H58c-1.5,0-2.3,1-2.3,1.9v108.9c0,16.8-15.4,24.9-31,24.9c-15.4,0-29.1-8.7-31-25.1v-80.4h-31.4
				v80.6c0,34.3,28.1,55.5,62.4,55.5c35.3,0,62.4-20.4,62.4-55.5v-108.9C87.1-173.9,86.1-174.9,85-174.9z"/>
		</g>
	</g>
</g>
<g>
	<g transform="translate(452.062544, 455.36304)">
		<g>
			<path class="st0" d="M92-11.4c-10.4-23.1-21.6-45.9-32-69.4c16.6-6,30.6-19.3,30.6-44.7c0-49-46.8-49.5-56.1-49.5h-53.8
				c-1,0-2.1,1-2.1,1.9v28.3h55.9c5,0,24.5,1,24.5,19.3s-17.7,19.1-24.5,19.1h-55.9v95.8c0,0.8,1,1.9,2.1,1.9H7.8
				c1.2,0,2.3-1,2.3-1.9v-65.3h17.9L58.3-9.9c0.2,0.6,1.5,1.2,2.1,1.2h29.7C91.7-8.7,92.6-9.9,92-11.4z"/>
		</g>
	</g>
</g>
<g>
	<g transform="translate(556.910195, 455.36304)">
		<g>
			<path class="st0" d="M87.5-143.1L70-118.8l-39.5-55.5c-0.4-0.4-1.5-0.6-2.1-0.6H-4.4c-2.3,0-3.1,1.7-2.1,3.1
				c20.2,28.3,40.7,56.5,60.7,85v76.3c0,0.8,0.8,1.9,2.3,1.9h27.2c1.2,0,2.3-1,2.3-1.9v-76.3l40.1-56.3H87.5z"/>
		</g>
	</g>
</g>
<g>
	<g transform="translate(79.313531, 456.371013)">
		<g>
			<path class="st1" d="M64.5-105.2c-18.4,0-26.8,11.5-30.6,28.3h-5.4c-2.8-16.5-10.3-28.3-28.2-28.3c-18.4,0-27,11.5-30.8,28.3H-38
				l5.6-16.9v-9.6h-30v94.8h30v-33.2c0-22.9,3.8-37.2,20.1-37.2c11.1,0,14.1,5.1,14.1,23.1v47.3h30v-33.2c0-22.9,3.8-37.2,20.1-37.2
				C63-78.9,66-73.8,66-55.8v47.3h30v-49.4C96-83.4,88.7-105.2,64.5-105.2z"/>
		</g>
	</g>
</g>
</svg>
